<?xml version="1.0" encoding="utf-8"?>
<!-- Generator: Adobe Illustrator 16.0.0, SVG Export Plug-In . SVG Version: 6.00 Build 0)  -->
<!DOCTYPE svg PUBLIC "-//W3C//DTD SVG 1.1//EN" "http://www.w3.org/Graphics/SVG/1.1/DTD/svg11.dtd">
<svg version="1.1" id="圖層_1" xmlns="http://www.w3.org/2000/svg" xmlns:xlink="http://www.w3.org/1999/xlink" x="0px" y="0px"
	 width="800px" height="300px" viewBox="0 0 800 300" enable-background="new 0 0 800 300" xml:space="preserve">
<g>
	<path stroke="#000000" stroke-width="7" stroke-miterlimit="10" d="M136.411,172.153v-88.38h55.2c5.14,0,8.844,1.352,11.111,4.055
		c2.268,2.704,3.401,7.065,3.401,13.085v19.733c0,5.965-1.134,10.299-3.401,13.002c-2.268,2.705-5.972,4.055-11.111,4.055h-10.042
		l31.292,34.449h-16.975l-27.859-34.449h-20.149v34.449H136.411z M187.141,95.229h-39.262v31.021h39.262
		c2.851,0,4.794-0.669,5.831-2.006c1.037-1.338,1.555-3.679,1.555-7.024v-12.876c0-3.345-0.529-5.699-1.587-7.065
		C191.88,95.912,189.948,95.229,187.141,95.229z"/>
</g>
<g>
</g>
<g>
	<path stroke="#000000" stroke-width="7" stroke-miterlimit="10" d="M228.168,143.581c0-3.424,0.584-5.762,1.752-7.014
		c1.168-1.251,3.348-1.877,6.541-1.877h24.412c3.193,0,5.373,0.626,6.541,1.877c1.168,1.252,1.752,3.59,1.752,7.014v19.725
		c0,3.424-0.578,5.755-1.732,6.992c-1.155,1.237-3.342,1.855-6.561,1.855h-24.412c-3.245,0-5.438-0.611-6.58-1.834
		c-1.143-1.223-1.713-3.562-1.713-7.014V143.581z M234.554,166.499h28.227v-26.241h-28.227V166.499z"/>
	<path stroke="#000000" stroke-width="7" stroke-miterlimit="10" d="M284,172.153V134.69h28.539c2.595,0,4.477,0.583,5.646,1.748
		c1.168,1.166,1.752,3.029,1.752,5.589v4.316c0,1.985-0.467,3.489-1.402,4.51c-0.934,1.021-2.427,1.662-4.478,1.921
		c1.999,0.23,3.517,0.971,4.556,2.223c1.038,1.252,1.557,2.928,1.557,5.028v4.791c0,2.475-0.805,4.315-2.414,5.524
		c-1.609,1.208-4.063,1.813-7.358,1.813H284z M313.59,146.775v-3.539c0-1.15-0.26-1.949-0.779-2.396
		c-0.52-0.446-1.467-0.669-2.842-0.669h-19.584v9.625h19.584c1.479,0,2.453-0.216,2.92-0.647S313.59,147.926,313.59,146.775z
		 M290.385,155.277v11.395h19.584c1.453,0,2.459-0.309,3.018-0.928c0.558-0.618,0.837-1.719,0.837-3.302v-2.936
		c0-1.554-0.286-2.646-0.856-3.279c-0.571-0.633-1.571-0.95-2.998-0.95H290.385z"/>
	<path stroke="#000000" stroke-width="7" stroke-miterlimit="10" d="M333.563,143.581c0-3.424,0.584-5.762,1.752-7.014
		c1.168-1.251,3.348-1.877,6.541-1.877h24.412c3.193,0,5.373,0.626,6.541,1.877c1.168,1.252,1.752,3.59,1.752,7.014v19.725
		c0,3.424-0.578,5.755-1.732,6.992c-1.155,1.237-3.342,1.855-6.561,1.855h-24.412c-3.245,0-5.438-0.611-6.58-1.834
		c-1.143-1.223-1.713-3.562-1.713-7.014V143.581z M339.949,166.499h28.227v-26.241h-28.227V166.499z"/>
	<path stroke="#000000" stroke-width="7" stroke-miterlimit="2" d="M394.496,141.639c0,0.547,0.025,1.295,0.078,2.245
		c0.052,1.554,0.078,2.546,0.078,2.978v25.292h-5.256V134.69h5.256l16.819,24.299l15.457-24.299h5.918v37.463h-5.918v-25.292
		c0-0.92,0.032-1.813,0.098-2.676c0.064-0.863,0.161-1.697,0.292-2.503c-0.364,1.18-0.74,2.223-1.13,3.129
		c-0.389,0.906-0.753,1.59-1.09,2.05l-13.004,19.379h-1.674l-13.472-19.207c-0.467-0.661-0.909-1.438-1.324-2.331
		C395.209,143.812,394.833,142.79,394.496,141.639z"/>
	<path stroke="#000000" stroke-width="7" stroke-miterlimit="2" d="M443.046,172.153l19.545-37.463h5.841l20.012,37.463h-6.931
		l-4.399-8.762h-23.36l-4.321,8.762H443.046z M456.439,157.997h17.949l-8.994-17.826L456.439,157.997z"/>
	<path stroke="#000000" stroke-width="7" stroke-miterlimit="2" d="M503.978,142.2c0.156,1.094,0.272,2.201,0.351,3.324
		c0.078,1.122,0.117,2.244,0.117,3.366v23.264h-5.879V134.69h4.866l24.802,24.472c0.726,0.69,1.421,1.453,2.083,2.287
		c0.661,0.835,1.316,1.785,1.966,2.849c-0.182-1.122-0.318-2.258-0.409-3.409c-0.091-1.15-0.136-2.345-0.136-3.583V134.69h5.879
		v37.463h-4.36l-25.308-24.817c-0.883-0.92-1.642-1.791-2.277-2.611C505.035,143.905,504.471,143.063,503.978,142.2z"/>
</g>
<g>
	<path stroke="#020202" stroke-width="7" stroke-miterlimit="10" d="M580.781,172.154l24.44-54.106h8.006l24.865,54.106h-8.218
		l-5.719-13.309H593.87l-5.719,13.309H580.781z M597.004,151.935h24.103l-12.072-27.693L597.004,151.935z"/>
</g>
<polygon fill="#E61B15" points="624.571,218.999 237.009,218.999 256.34,185.971 643.902,185.971 "/>
<path fill="#E61A14" stroke="#E61A14" stroke-width="7" stroke-miterlimit="10" d="M170.726,183.939h-10.819
	c-3.435,14.071-16.117,24.518-31.246,24.518c-17.767,0-32.169-14.403-32.169-32.17c0-15.204,10.552-27.937,24.73-31.294v-10.811
	c-6.408,1.124-12.328,3.664-17.414,7.303l-9.81-5.381l-5.569,5.577l5.394,9.802c-3.69,5.173-6.254,11.203-7.34,17.732l-10.743,3.122
	l-0.001,7.881l10.741,3.127c1.086,6.537,3.652,12.574,7.348,17.753l-5.393,9.802l5.57,5.577l9.809-5.382
	c5.184,3.707,11.232,6.283,17.783,7.372l3.124,10.742h7.881l3.125-10.742c6.553-1.09,12.603-3.667,17.788-7.376l9.81,5.38
	l5.569-5.577l-5.394-9.802C167.079,196.074,169.586,190.243,170.726,183.939z"/>
<path fill="#1D2088" stroke="#1D2088" stroke-width="7" stroke-miterlimit="10" d="M605.72,81.031
	c25.381,0,45.957,20.577,45.957,45.959c0,4.958-0.793,9.729-2.246,14.202l8.186,18.038c4.131-6.637,7.025-14.123,8.359-22.136
	l15.347-4.461l0.003-11.259l-15.347-4.465c-1.551-9.34-5.216-17.967-10.494-25.365l7.704-14.003l-7.959-7.966l-14.013,7.688
	c-7.406-5.297-16.046-8.976-25.406-10.532l-4.462-15.347h-11.26l-4.464,15.347c-9.362,1.556-18.003,5.238-25.412,10.538
	l-14.015-7.687l-7.956,7.966l7.705,14.003c-5.106,7.159-8.696,15.472-10.329,24.464h15.464
	C566.002,95.934,584.119,81.031,605.72,81.031z"/>
<g>
	<g>
		<path fill="#FFFFFF" d="M291.769,214.989v-21.693h18.968v2.955h-15.631v7.102h8.918v2.894h-8.918v8.743H291.769z"/>
		<path fill="#FFFFFF" d="M316.374,214.989v-21.693h16.064c1.496,0,2.574,0.332,3.234,0.995c0.66,0.664,0.99,1.734,0.99,3.212v4.844
			c0,1.464-0.33,2.528-0.99,3.191c-0.66,0.664-1.738,0.995-3.234,0.995h-2.922l9.107,8.456h-4.94l-8.108-8.456h-5.864v8.456H316.374
			z M331.138,196.107h-11.426v7.614h11.426c0.83,0,1.395-0.164,1.697-0.492c0.302-0.329,0.453-0.903,0.453-1.725v-3.16
			c0-0.821-0.154-1.399-0.462-1.734C332.517,196.275,331.955,196.107,331.138,196.107z"/>
		<path fill="#FFFFFF" d="M362.682,196.251h-13.821v15.722h13.821v-5.439l3.337,0.76v2.565c0,1.998-0.32,3.353-0.961,4.063
			c-0.641,0.712-1.867,1.067-3.677,1.067h-11.162c-1.81,0-3.042-0.359-3.695-1.077c-0.654-0.719-0.98-2.069-0.98-4.054v-11.432
			c0-1.983,0.327-3.335,0.98-4.054c0.653-0.718,1.885-1.077,3.695-1.077h11.162c1.81,0,3.036,0.355,3.677,1.067
			c0.641,0.711,0.961,2.065,0.961,4.063v2.053l-3.337,0.677V196.251z"/>
		<path fill="#FFFFFF" d="M396.941,196.251v18.738h-3.318v-18.738h-9.107v-2.955h21.57v2.955H396.941z"/>
		<path fill="#FFFFFF" d="M409.631,214.989v-17.814h16.479v2.647h-13.387v4.577h8.07v2.647h-8.07v5.336h13.538v2.606H409.631z"/>
		<path fill="#FFFFFF" d="M429.391,214.989l9.465-17.814h2.829l9.691,17.814h-3.356l-2.131-4.166h-11.313l-2.093,4.166H429.391z
			 M435.877,208.258h8.692l-4.355-8.477L435.877,208.258z"/>
		<path fill="#FFFFFF" d="M458.748,200.479c0,0.26,0.013,0.615,0.038,1.066c0.024,0.739,0.037,1.211,0.037,1.417v12.026h-2.545
			v-17.814h2.545l8.146,11.555l7.485-11.555h2.866v17.814h-2.866v-12.026c0-0.438,0.016-0.862,0.047-1.272
			c0.031-0.411,0.079-0.808,0.142-1.19c-0.176,0.561-0.358,1.057-0.547,1.487c-0.188,0.432-0.364,0.757-0.527,0.976l-6.298,9.215
			h-0.811l-6.524-9.133c-0.226-0.315-0.439-0.685-0.641-1.108S458.911,201.026,458.748,200.479z"/>
		<path fill="#FFFFFF" d="M491.876,215.358l11.558-19.148h-14.518v5.069l-2.979-0.615v-7.368h20.778v2.812l-10.974,19.251H491.876z"
			/>
		<path fill="#FFFFFF" d="M531.679,195.697c-0.139-0.014-0.299-0.024-0.48-0.031c-0.183-0.007-0.432-0.01-0.745-0.01
			c-3.909,0-6.879,0.526-8.909,1.58s-3.189,2.668-3.479,4.844c1.433-0.301,2.885-0.53,4.355-0.688s2.967-0.236,4.487-0.236
			c3.093,0,5.21,0.407,6.354,1.222c1.144,0.813,1.716,2.274,1.716,4.382v2.935c0,1.819-0.519,3.157-1.556,4.012
			c-1.037,0.855-2.656,1.283-4.855,1.283h-7.919c-2.351,0-3.959-0.476-4.827-1.427c-0.867-0.95-1.301-2.705-1.301-5.264v-2.854
			c0-4.035,1.2-7.159,3.602-9.368c2.4-2.21,5.795-3.315,10.182-3.315c0.176,0,0.361,0.004,0.556,0.011
			c0.195,0.007,0.456,0.03,0.783,0.072L531.679,195.697z M517.764,204.769c-0.038,0.273-0.069,0.521-0.095,0.739
			c-0.024,0.219-0.037,0.41-0.037,0.574c0,2.9,0.217,4.628,0.65,5.183c0.434,0.554,1.624,0.831,3.573,0.831h6.052
			c1.534,0,2.562-0.232,3.083-0.698c0.521-0.465,0.782-1.354,0.782-2.668v-1.396c0-1.313-0.326-2.203-0.98-2.668
			c-0.653-0.465-1.897-0.698-3.732-0.698c-1.685,0-3.307,0.069-4.865,0.205C520.636,204.311,519.159,204.509,517.764,204.769z"/>
		<path fill="#FFFFFF" d="M548.102,214.989c-1.685,0-2.819-0.298-3.403-0.893c-0.585-0.596-0.877-1.714-0.877-3.355v-1.766
			l3.168-0.8v3.838h11.501c0.729,0,1.21-0.127,1.442-0.38s0.349-0.776,0.349-1.57v-2.894c0-0.808-0.119-1.338-0.358-1.591
			c-0.238-0.253-0.716-0.38-1.433-0.38h-7.052v-2.771h6.316c0.717,0,1.194-0.157,1.433-0.472c0.239-0.314,0.358-0.985,0.358-2.012
			v-1.272c0-1.013-0.119-1.676-0.358-1.99c-0.238-0.315-0.716-0.473-1.433-0.473h-10.653v3.346l-3.017-0.657v-1.354
			c0-1.628,0.292-2.743,0.877-3.345c0.585-0.603,1.726-0.903,3.422-0.903h10.106c1.697,0,2.838,0.301,3.422,0.903
			c0.585,0.602,0.877,1.717,0.877,3.345v1.971c0,1.245-0.229,2.176-0.688,2.791s-1.234,1.061-2.328,1.334
			c1.332,0.219,2.291,0.674,2.875,1.365c0.585,0.69,0.877,1.707,0.877,3.048v2.277c0,1.779-0.336,3-1.009,3.664
			c-0.673,0.663-1.857,0.995-3.554,0.995H548.102z"/>
		<path fill="#FFFFFF" d="M589.45,195.697c-0.139-0.014-0.299-0.024-0.48-0.031c-0.183-0.007-0.432-0.01-0.745-0.01
			c-3.909,0-6.879,0.526-8.909,1.58s-3.189,2.668-3.479,4.844c1.433-0.301,2.885-0.53,4.355-0.688s2.967-0.236,4.487-0.236
			c3.093,0,5.21,0.407,6.354,1.222c1.144,0.813,1.716,2.274,1.716,4.382v2.935c0,1.819-0.519,3.157-1.556,4.012
			c-1.037,0.855-2.656,1.283-4.855,1.283h-7.919c-2.351,0-3.959-0.476-4.827-1.427c-0.867-0.95-1.301-2.705-1.301-5.264v-2.854
			c0-4.035,1.2-7.159,3.602-9.368c2.4-2.21,5.795-3.315,10.182-3.315c0.176,0,0.361,0.004,0.556,0.011
			c0.195,0.007,0.456,0.03,0.783,0.072L589.45,195.697z M575.535,204.769c-0.038,0.273-0.069,0.521-0.095,0.739
			c-0.024,0.219-0.037,0.41-0.037,0.574c0,2.9,0.217,4.628,0.65,5.183c0.434,0.554,1.624,0.831,3.573,0.831h6.052
			c1.534,0,2.562-0.232,3.083-0.698c0.521-0.465,0.782-1.354,0.782-2.668v-1.396c0-1.313-0.326-2.203-0.98-2.668
			c-0.653-0.465-1.897-0.698-3.732-0.698c-1.685,0-3.307,0.069-4.865,0.205C578.407,204.311,576.931,204.509,575.535,204.769z"/>
	</g>
</g>
<g>
</g>
<path fill="#1D2088" d="M689.348,206.074l4.273-0.446l0.541-2.979l-3.845-1.916c0-0.049-0.004-0.098-0.004-0.145
	c0.002-0.16-0.002-0.319-0.006-0.48s-0.008-0.323-0.018-0.483c-0.002-0.047-0.002-0.094-0.004-0.142l3.746-2.104l-0.685-2.947
	l-4.291-0.235c-0.046-0.104-0.095-0.209-0.14-0.313c-0.059-0.126-0.108-0.255-0.167-0.379l2.706-3.339l-1.727-2.486l-4.074,1.368
	c-0.027-0.03-0.057-0.056-0.084-0.085c-0.121-0.121-0.245-0.24-0.368-0.355c-0.119-0.115-0.237-0.228-0.359-0.334
	c-0.032-0.029-0.063-0.059-0.093-0.088l1.16-4.137l-2.57-1.6l-3.198,2.871c-0.13-0.055-0.263-0.1-0.395-0.15
	c-0.104-0.039-0.209-0.084-0.315-0.121l-0.449-4.275l-2.979-0.537l-1.912,3.848c-0.048,0-0.095,0.006-0.142,0.004
	c-0.159,0-0.319,0.004-0.479,0.008c-0.161,0.001-0.324,0.01-0.486,0.017c-0.048,0.001-0.093,0.003-0.141,0.005l-2.109-3.744
	l-2.946,0.689l-0.23,4.292c-0.118,0.048-0.233,0.105-0.35,0.157c-0.107,0.049-0.214,0.091-0.32,0.141l-3.337-2.709l-2.487,1.727
	l1.365,4.074c-0.028,0.029-0.056,0.059-0.085,0.088c-0.12,0.117-0.235,0.236-0.35,0.36c-0.116,0.122-0.231,0.243-0.344,0.37
	c-0.028,0.028-0.056,0.057-0.083,0.087l-4.137-1.161l-1.601,2.571l2.871,3.197c-0.047,0.116-0.087,0.232-0.133,0.35
	c-0.044,0.114-0.093,0.229-0.134,0.344l-4.274,0.442l-0.54,2.979l3.846,1.918c-0.001,0.047,0.001,0.093,0.004,0.14
	c-0.004,0.163,0,0.325,0.004,0.487c0.004,0.16,0.009,0.32,0.019,0.479c0.002,0.048,0.002,0.095,0.003,0.143l-3.746,2.103
	l0.687,2.949l4.291,0.235c0.045,0.107,0.097,0.214,0.145,0.323c0.054,0.122,0.104,0.245,0.161,0.366l-2.704,3.339l1.724,2.487
	l4.073-1.367c0.026,0.027,0.056,0.056,0.084,0.081c0.119,0.121,0.245,0.24,0.368,0.358c0.121,0.115,0.243,0.23,0.366,0.341
	c0.03,0.027,0.059,0.056,0.089,0.081l-1.162,4.139l2.572,1.599l3.198-2.871c0.113,0.048,0.23,0.085,0.345,0.131
	c0.121,0.047,0.24,0.098,0.361,0.143l0.452,4.273l2.98,0.535l1.911-3.848c0.051,0.002,0.103-0.002,0.156-0.001
	c0.149,0,0.299-0.005,0.447-0.009c0.17-0.004,0.341-0.007,0.51-0.017c0.044-0.002,0.089-0.002,0.134-0.006l2.109,3.745l2.946-0.689
	l0.229-4.291c0.105-0.044,0.208-0.095,0.312-0.142c0.12-0.052,0.239-0.101,0.358-0.155l3.338,2.704l2.487-1.724l-1.365-4.074
	c0.03-0.029,0.059-0.062,0.089-0.092c0.117-0.113,0.229-0.232,0.344-0.352c0.116-0.126,0.234-0.248,0.348-0.374
	c0.025-0.03,0.054-0.058,0.08-0.088l4.137,1.161l1.601-2.571l-2.871-3.196c0.054-0.126,0.096-0.253,0.145-0.379
	C689.265,206.283,689.31,206.18,689.348,206.074z M673.892,211.011c-5.805,0-10.5-4.696-10.5-10.5s4.695-10.5,10.5-10.5
	c5.803,0,10.5,4.696,10.5,10.5S679.694,211.011,673.892,211.011z"/>
<path fill="#1D2088" d="M751.448,163.55c0.029-0.177,0.065-0.353,0.093-0.528l6.486-2.024l-0.092-4.787l-6.561-1.77
	c-0.016-0.074-0.034-0.149-0.049-0.223c-0.05-0.249-0.103-0.495-0.16-0.741c-0.057-0.249-0.115-0.497-0.178-0.744
	c-0.02-0.072-0.033-0.145-0.052-0.218l5.151-4.431l-1.984-4.355l-6.725,0.978c-0.102-0.149-0.213-0.294-0.316-0.442
	c-0.127-0.178-0.244-0.361-0.375-0.535l3.151-6.02l-3.451-3.315l-5.888,3.392c-0.054-0.038-0.107-0.067-0.159-0.104
	c-0.224-0.15-0.453-0.294-0.683-0.437c-0.219-0.14-0.438-0.277-0.661-0.407c-0.057-0.035-0.111-0.072-0.169-0.105l0.504-6.775
	l-4.483-1.677l-4.061,5.449c-0.22-0.042-0.439-0.072-0.658-0.107c-0.176-0.029-0.351-0.067-0.525-0.092l-2.033-6.485l-4.786,0.099
	l-1.762,6.564c-0.074,0.013-0.146,0.033-0.219,0.047c-0.248,0.049-0.493,0.104-0.738,0.161c-0.251,0.056-0.501,0.114-0.75,0.18
	c-0.071,0.019-0.145,0.032-0.217,0.051L714.662,129l-4.354,1.991l0.984,6.723c-0.166,0.114-0.327,0.237-0.492,0.354
	c-0.15,0.107-0.305,0.207-0.453,0.318l-6.019-3.154l-3.316,3.453l3.388,5.888c-0.035,0.054-0.068,0.109-0.104,0.163
	c-0.146,0.218-0.289,0.442-0.43,0.668c-0.143,0.226-0.284,0.449-0.419,0.679c-0.032,0.054-0.066,0.106-0.099,0.161l-6.776-0.505
	l-1.676,4.483l5.447,4.062c-0.037,0.194-0.063,0.387-0.095,0.583c-0.033,0.191-0.072,0.382-0.102,0.575l-6.486,2.022l0.094,4.786
	l6.562,1.77c0.011,0.073,0.032,0.145,0.046,0.217c0.049,0.255,0.105,0.505,0.163,0.754c0.054,0.246,0.112,0.49,0.175,0.736
	c0.019,0.073,0.033,0.146,0.052,0.219l-5.15,4.43l1.985,4.357l6.724-0.977c0.104,0.154,0.22,0.304,0.326,0.456
	c0.123,0.173,0.238,0.35,0.366,0.52l-3.153,6.021l3.452,3.315l5.889-3.391c0.05,0.034,0.102,0.064,0.152,0.098
	c0.224,0.15,0.454,0.296,0.685,0.44c0.224,0.141,0.447,0.281,0.675,0.414c0.054,0.032,0.105,0.067,0.16,0.099l-0.506,6.775
	l4.486,1.677l4.059-5.45c0.192,0.037,0.385,0.063,0.578,0.096c0.201,0.034,0.403,0.077,0.604,0.106l2.034,6.484l4.785-0.1
	l1.762-6.563c0.081-0.015,0.161-0.035,0.241-0.051c0.232-0.045,0.461-0.099,0.692-0.152c0.263-0.061,0.525-0.119,0.783-0.186
	c0.069-0.019,0.14-0.032,0.208-0.052l4.438,5.146l4.353-1.989l-0.985-6.724c0.149-0.101,0.293-0.212,0.44-0.314
	c0.167-0.119,0.34-0.232,0.505-0.355l6.02,3.151l3.316-3.45l-3.389-5.89c0.039-0.056,0.071-0.112,0.108-0.168
	c0.146-0.215,0.283-0.435,0.421-0.653c0.144-0.229,0.288-0.458,0.425-0.688c0.03-0.055,0.064-0.105,0.098-0.161l6.775,0.505
	l1.675-4.482l-5.446-4.062C751.386,163.969,751.412,163.76,751.448,163.55z M725.845,176.73c-9.675,0-17.5-7.827-17.5-17.5
	s7.825-17.5,17.5-17.5c9.671,0,17.5,7.827,17.5,17.5S735.516,176.73,725.845,176.73z"/>
<path fill="#E60012" d="M179.31,247.539l3.011-0.314l0.381-2.1l-2.709-1.35c0-0.035-0.003-0.069-0.003-0.103
	c0.002-0.113-0.001-0.226-0.003-0.338c-0.003-0.113-0.006-0.228-0.013-0.341c-0.001-0.033-0.001-0.066-0.003-0.101l2.64-1.48
	l-0.482-2.078l-3.024-0.165c-0.033-0.074-0.066-0.147-0.099-0.221c-0.041-0.089-0.076-0.18-0.118-0.267l1.907-2.354l-1.217-1.751
	l-2.871,0.964c-0.019-0.021-0.04-0.039-0.059-0.061c-0.084-0.085-0.173-0.169-0.259-0.249c-0.084-0.083-0.167-0.161-0.253-0.236
	c-0.022-0.021-0.044-0.041-0.065-0.062l0.817-2.915l-1.811-1.127l-2.253,2.023c-0.092-0.039-0.186-0.072-0.278-0.107
	c-0.074-0.027-0.147-0.059-0.222-0.085l-0.316-3.013l-2.099-0.378l-1.348,2.711c-0.033,0-0.066,0.004-0.1,0.002
	c-0.112,0-0.225,0.003-0.337,0.007c-0.114,0-0.229,0.007-0.343,0.012c-0.034,0-0.065,0.001-0.099,0.003l-1.486-2.638l-2.076,0.485
	l-0.163,3.024c-0.083,0.033-0.165,0.074-0.246,0.111c-0.076,0.033-0.151,0.063-0.226,0.098l-2.351-1.907l-1.752,1.216l0.961,2.871
	c-0.02,0.021-0.039,0.04-0.06,0.062c-0.084,0.082-0.166,0.167-0.247,0.255c-0.082,0.084-0.163,0.17-0.242,0.259
	c-0.02,0.021-0.039,0.041-0.059,0.063l-2.915-0.819l-1.128,1.812l2.023,2.253c-0.033,0.082-0.061,0.164-0.093,0.246
	c-0.031,0.081-0.065,0.162-0.095,0.243l-3.012,0.311l-0.38,2.101l2.71,1.351c0,0.033,0,0.066,0.003,0.1
	c-0.003,0.114,0,0.229,0.002,0.343c0.003,0.113,0.006,0.226,0.013,0.337c0.001,0.034,0.001,0.067,0.002,0.101l-2.64,1.48
	l0.484,2.079l3.023,0.166c0.032,0.076,0.068,0.149,0.102,0.227c0.038,0.087,0.073,0.174,0.114,0.259l-1.905,2.354l1.214,1.752
	l2.87-0.964c0.019,0.02,0.039,0.04,0.06,0.058c0.084,0.085,0.172,0.169,0.259,0.253c0.085,0.081,0.171,0.162,0.258,0.24
	c0.021,0.019,0.042,0.038,0.063,0.058l-0.819,2.915l1.813,1.127l2.253-2.023c0.08,0.033,0.163,0.06,0.244,0.092
	c0.084,0.034,0.169,0.069,0.254,0.1l0.318,3.013l2.1,0.377l1.347-2.711c0.036,0.001,0.071-0.002,0.11-0.001
	c0.105,0,0.21-0.003,0.315-0.007c0.12-0.002,0.24-0.004,0.359-0.011c0.031-0.002,0.063-0.002,0.095-0.005l1.486,2.64l2.076-0.486
	l0.162-3.023c0.074-0.031,0.146-0.067,0.219-0.101c0.084-0.036,0.168-0.07,0.252-0.108l2.353,1.905l1.752-1.215l-0.961-2.87
	c0.021-0.021,0.041-0.043,0.062-0.065c0.083-0.079,0.161-0.164,0.243-0.247c0.082-0.089,0.165-0.175,0.245-0.264
	c0.019-0.021,0.038-0.04,0.057-0.062l2.915,0.817l1.128-1.812l-2.023-2.253c0.038-0.088,0.067-0.178,0.102-0.266
	C179.251,247.686,179.283,247.612,179.31,247.539z M168.419,251.017c-4.09,0-7.399-3.309-7.399-7.398s3.309-7.398,7.399-7.398
	c4.088,0,7.399,3.309,7.399,7.398S172.507,251.017,168.419,251.017z"/>
<path fill="#E60012" d="M221.615,229.14l4.866,0.597l1.364-3.176l-3.788-3.113c0.013-0.057,0.021-0.11,0.032-0.163
	c0.045-0.179,0.081-0.356,0.119-0.536c0.036-0.179,0.073-0.359,0.103-0.541c0.01-0.054,0.022-0.105,0.032-0.16l4.704-1.38
	l-0.007-3.453l-4.713-1.358c-0.025-0.129-0.051-0.258-0.076-0.384c-0.033-0.155-0.055-0.312-0.089-0.464l3.865-3.021l-1.285-3.206
	l-4.881,0.479c-0.023-0.04-0.049-0.076-0.071-0.117c-0.103-0.165-0.212-0.33-0.318-0.488c-0.104-0.162-0.206-0.313-0.314-0.464
	c-0.029-0.041-0.055-0.081-0.082-0.121l2.348-4.304l-2.449-2.436l-4.292,2.375c-0.131-0.095-0.267-0.181-0.4-0.271
	c-0.106-0.069-0.211-0.146-0.32-0.215l0.594-4.87l-3.176-1.357l-3.112,3.789c-0.052-0.011-0.106-0.016-0.158-0.032
	c-0.177-0.041-0.356-0.077-0.534-0.111c-0.18-0.041-0.363-0.072-0.545-0.105c-0.054-0.013-0.103-0.022-0.158-0.032l-1.389-4.702
	l-3.453,0.013l-1.354,4.715c-0.144,0.021-0.287,0.057-0.429,0.087c-0.132,0.024-0.261,0.045-0.392,0.071l-3.019-3.863l-3.208,1.282
	l0.475,4.881c-0.038,0.026-0.076,0.05-0.116,0.076c-0.163,0.098-0.322,0.203-0.481,0.313c-0.16,0.104-0.319,0.209-0.476,0.32
	c-0.039,0.026-0.077,0.051-0.115,0.079l-4.304-2.351l-2.437,2.449l2.375,4.291c-0.082,0.117-0.156,0.236-0.237,0.354
	c-0.078,0.117-0.162,0.233-0.238,0.35l-4.866-0.603l-1.363,3.178l3.788,3.115c-0.013,0.053-0.023,0.105-0.032,0.157
	c-0.046,0.181-0.083,0.362-0.121,0.542c-0.036,0.181-0.072,0.358-0.101,0.537c-0.01,0.056-0.022,0.106-0.033,0.16l-4.704,1.379
	l0.01,3.457l4.71,1.358c0.023,0.133,0.055,0.262,0.08,0.396c0.028,0.15,0.052,0.3,0.086,0.449l-3.861,3.022l1.281,3.207l4.878-0.48
	c0.022,0.038,0.047,0.078,0.073,0.112c0.102,0.165,0.211,0.329,0.318,0.493c0.105,0.16,0.21,0.318,0.319,0.474
	c0.028,0.037,0.053,0.075,0.079,0.113l-2.35,4.305l2.452,2.437l4.291-2.378c0.114,0.083,0.236,0.154,0.352,0.234
	c0.12,0.085,0.24,0.17,0.364,0.25l-0.591,4.87l3.178,1.357l3.11-3.79c0.057,0.015,0.114,0.022,0.173,0.037
	c0.166,0.038,0.333,0.072,0.5,0.105c0.188,0.04,0.38,0.079,0.57,0.112c0.051,0.009,0.101,0.021,0.151,0.027l1.389,4.705l3.453-0.015
	l1.352-4.713c0.129-0.022,0.256-0.054,0.383-0.08c0.146-0.025,0.291-0.049,0.438-0.079l3.022,3.86l3.207-1.281l-0.477-4.879
	c0.041-0.026,0.08-0.053,0.122-0.08c0.159-0.095,0.313-0.201,0.473-0.303c0.16-0.11,0.322-0.217,0.481-0.327
	c0.037-0.028,0.074-0.049,0.113-0.076l4.304,2.349l2.438-2.451l-2.377-4.29c0.091-0.125,0.171-0.257,0.257-0.382
	C221.468,229.349,221.546,229.245,221.615,229.14z M203.163,230.678c-6.456-1.484-10.478-7.907-8.994-14.363
	s7.908-10.477,14.363-8.993c6.453,1.483,10.478,7.906,8.994,14.362S209.616,232.161,203.163,230.678z"/>
<path fill="#040000" d="M570.085,131.467c-0.006-2.581-2.204-4.792-5.335-5.735l0.002,0.523l0.008,3.208v0.39l0.007,2.193v0.223
	l-3.397,1.407l-3.403-1.398l-0.001-0.223l-0.008-2.194v-0.388l-0.009-3.21v-0.522c-3.126,0.951-5.313,3.168-5.31,5.748
	c0.008,2.37,1.863,4.429,4.591,5.479l0.089,36.432c0,0.053,0.009,0.104,0.016,0.154c0.058,0.893,0.681,1.672,1.605,2.187
	c0.674,0.517,1.506,0.836,2.422,0.836c0.711,0,1.369-0.201,1.947-0.526c1.306-0.467,2.226-1.403,2.29-2.506
	c0.011-0.051,0.018-0.102,0.018-0.155l-0.091-36.433C568.247,135.899,570.092,133.837,570.085,131.467z M561.362,174.065
	c-1.057,0-1.911-0.854-1.911-1.911s0.854-1.911,1.911-1.911s1.911,0.854,1.911,1.911S562.419,174.065,561.362,174.065z"/>
<g>
</g>
<g>
</g>
<g>
</g>
<g>
</g>
<g>
</g>
<g>
</g>
</svg>
